<svg xmlns="http://www.w3.org/2000/svg" xmlns:xlink="http://www.w3.org/1999/xlink" width="1440" height="630" version="1.1" viewBox="0 0 1440 630"><title>Group</title><desc>Created with Sketch.</desc><defs><rect id="path-1" width="1440" height="629" x="0" y=".171"/><radialGradient id="radialGradient-3" cx="50.435%" cy="40.021%" r="40.339%" fx="50.435%" fy="40.021%"><stop offset="0%" stop-color="#131B26"/><stop offset="100%" stop-color="#263748"/></radialGradient><linearGradient id="linearGradient-4" x1="34.838%" x2="86.327%" y1="89.401%" y2="-74.098%"><stop offset="0%" stop-color="#1D2F40"/><stop offset="100%" stop-color="#2F404F"/></linearGradient><polyline id="path-5" points="717.528 12.311 989.412 284.195 717.528 556.078 445.644 284.195 717.528 12.311"/><filter id="filter-6" width="200%" height="200%" x="-50%" y="-50%" filterUnits="objectBoundingBox"><feOffset dx="0" dy="8" in="SourceAlpha" result="shadowOffsetOuter1"/><feGaussianBlur in="shadowOffsetOuter1" result="shadowBlurOuter1" stdDeviation="9"/><feComposite in="shadowBlurOuter1" in2="SourceAlpha" operator="out" result="shadowBlurOuter1"/><feColorMatrix in="shadowBlurOuter1" type="matrix" values="0 0 0 0 0 0 0 0 0 0 0 0 0 0 0 0 0 0 0.5 0"/></filter><mask id="mask-7" width="543.767" height="543.767" x="0" y="0" fill="#fff" maskContentUnits="userSpaceOnUse" maskUnits="objectBoundingBox"><use xlink:href="#path-5"/></mask></defs><g id="Page-1" fill="none" fill-rule="evenodd" stroke="none" stroke-width="1"><g id="Group"><mask id="mask-2" fill="#fff"><use xlink:href="#path-1"/></mask><rect id="Rectangle-90" width="1450.66" height="633.656" x="-7.687" y="-1.015" fill="url(#radialGradient-3)" mask="url(#mask-2)"/><polyline id="Rectangle-89-Copy-13" fill="#263748" points="1035.032 36.259 1188.215 189.441 1035.032 342.624 881.85 189.441 1035.032 36.259" mask="url(#mask-2)"/><polyline id="Rectangle-89-Copy-7" fill="#263748" points="415.365 48.405 554.89 187.93 415.365 327.456 275.839 187.93 415.365 48.405" mask="url(#mask-2)"/><polyline id="Rectangle-89-Copy-17" fill="#263748" points="270.86 -94.704 410.385 44.822 270.86 184.347 131.335 44.822 270.86 -94.704" mask="url(#mask-2)"/><polyline id="Rectangle-89-Copy-7" fill="#263748" points="347.674 268.213 410.385 330.924 347.674 393.635 284.964 330.924 347.674 268.213" mask="url(#mask-2)"/><polyline id="Rectangle-89-Copy-7" fill="#263748" points="121.135 41.925 343.393 264.184 121.135 486.442 -101.123 264.184 121.135 41.925" mask="url(#mask-2)"/><polyline id="Rectangle-89-Copy-7" fill="#263748" points="280.682 335.457 343.393 398.168 280.682 460.879 217.971 398.168 280.682 335.457" mask="url(#mask-2)"/><polyline id="Rectangle-89-Copy-9" fill="#263748" points="718.708 -520 1150.941 -87.767 718.708 344.466 286.475 -87.767 718.708 -520" mask="url(#mask-2)"/><polyline id="Rectangle-89-Copy" fill="#263748" points="992.549 307.25 1256.546 571.247 984.662 843.131 720.665 579.134 992.549 307.25" mask="url(#mask-2)"/><polyline id="Rectangle-89-Copy-6" fill="#263748" points="442.737 307.25 595.92 460.433 442.737 613.615 289.554 460.433 442.737 307.25" mask="url(#mask-2)"/><polyline id="Rectangle-89-Copy-14" fill="#263748" points="1191.122 -118.881 1342.765 32.762 1191.122 184.404 1039.479 32.762 1191.122 -118.881" mask="url(#mask-2)"/><polyline id="Rectangle-89-Copy-11" fill="#263748" points="599.216 465.412 752.787 618.984 599.216 772.555 445.644 618.984 599.216 465.412" mask="url(#mask-2)"/><polyline id="Rectangle-89-Copy-8" fill="#263748" points="130.212 311.28 402.096 583.163 130.212 855.047 -141.671 583.163 130.212 311.28" mask="url(#mask-2)"/><polyline id="Rectangle-89-Copy-2" fill="#263748" points="1310.888 74.492 1582.772 346.376 1310.888 618.259 1039.004 346.376 1310.888 74.492" mask="url(#mask-2)"/><g id="Rectangle-89" mask="url(#mask-2)"><use fill="#000" fill-opacity="1" filter="url(#filter-6)" xlink:href="#path-5"/><use fill="url(#linearGradient-4)" fill-rule="evenodd" stroke="#46AEDA" stroke-opacity=".159" stroke-width="2" mask="url(#mask-7)" xlink:href="#path-5"/></g></g></g></svg>