<svg xmlns="http://www.w3.org/2000/svg" xmlns:xlink="http://www.w3.org/1999/xlink" id="Layer_1" x="0" y="0" baseProfile="basic" version="1.1" viewBox="0 0 69 69" xml:space="preserve"><style type="text/css">.st0{fill:url(#SVGID_1_)}.st1{fill:url(#SVGID_2_)}</style><g><g><linearGradient id="SVGID_1_" x1="15.6" x2="53.713" y1="52.6" y2="14.487" gradientUnits="userSpaceOnUse"><stop offset="0" stop-color="#2751AF"/><stop offset="1" stop-color="#32C0F9"/></linearGradient><path d="M34.5,60.2C19.9,60.2,8,48.3,8,33.7S19.9,7.2,34.5,7.2S61,19.1,61,33.7S49.1,60.2,34.5,60.2z M34.5,9.2 C21,9.2,10,20.2,10,33.7c0,13.5,11,24.5,24.5,24.5C48,58.2,59,47.2,59,33.7C59,20.2,48,9.2,34.5,9.2z" class="st0"/></g><g><linearGradient id="SVGID_2_" x1="14.925" x2="53.038" y1="51.925" y2="13.812" gradientUnits="userSpaceOnUse"><stop offset="0" stop-color="#2751AF"/><stop offset="1" stop-color="#32C0F9"/></linearGradient><path d="M30.3,42.4c-0.2,0-0.3,0-0.5-0.1c-0.3-0.2-0.5-0.5-0.5-0.9V26.1c0-0.4,0.2-0.7,0.5-0.9c0.3-0.2,0.7-0.2,1,0 l13.3,7.6c0.3,0.2,0.5,0.5,0.5,0.9s-0.2,0.7-0.5,0.9l-13.3,7.7C30.6,42.4,30.5,42.4,30.3,42.4z M31.3,27.8v11.8l10.3-6L31.3,27.8z" class="st1"/></g></g></svg>